<?xml version="1.0" encoding="UTF-8" standalone="no"?>
<svg width="100%" height="100%" viewBox="0 0 800 800" version="1.1" xmlns="http://www.w3.org/2000/svg" xmlns:xlink="http://www.w3.org/1999/xlink" xml:space="preserve" xmlns:serif="http://www.serif.com/" style="fill-rule:evenodd;clip-rule:evenodd;stroke-linejoin:round;stroke-miterlimit:2;"><path d="M680,355.496c-0,-22.35 -18.146,-40.496 -40.496,-40.496l-519.008,0c-22.35,0 -40.496,18.146 -40.496,40.496l-0,405.008c-0,22.35 18.146,40.496 40.496,40.496l519.008,0c22.35,0 40.496,-18.146 40.496,-40.496l-0,-405.008Z" style="fill:#23b02d;"/><path d="M590,205.5c-0,-112.942 -94.02,-204.5 -210,-204.5c-115.98,-0 -210,91.558 -210,204.5l80.089,0c0,-69.869 58.163,-126.509 129.911,-126.509c71.748,0 129.911,56.64 129.911,126.509l80.089,-0Z" style="fill:#23b02d;"/><rect x="170" y="203" width="80" height="114" style="fill:#23b02d;"/><rect x="510" y="205" width="80" height="111" style="fill:#23b02d;"/></svg>